<svg width="515" height="26" viewBox="0 0 515 26" fill="none" xmlns="http://www.w3.org/2000/svg">
<g clip-path="url(#clip0_963_115)">
<path d="M1.18134 18.6085C0.863667 18.6085 0.585705 18.4868 0.347452 18.2535C0.119126 18.0203 0 17.7363 0 17.4016C0 16.6004 0.218398 15.8702 0.665122 15.211L8.1403 4.2069C8.67637 3.40568 9.43084 3 10.4136 3C10.8107 3 11.1482 3.14199 11.4361 3.43611C11.724 3.73022 11.863 4.07505 11.863 4.48073V15.9817C11.863 16.1237 11.9424 16.2049 12.1013 16.2049H13.8187C14.1363 16.2049 14.4143 16.3266 14.6525 16.5598C14.8809 16.7931 15 17.0771 15 17.4118C15 17.7464 14.8809 18.0203 14.6525 18.2637C14.4242 18.497 14.1463 18.6187 13.8187 18.6187H12.1013C11.9424 18.6187 11.863 18.6998 11.863 18.8621V21.5193C11.863 21.9249 11.724 22.2698 11.4361 22.5639C11.1482 22.858 10.8107 23 10.4136 23C10.0165 23 9.67902 22.858 9.39113 22.5639C9.10324 22.2698 8.96426 21.9249 8.96426 21.5193V18.8621C8.96426 18.6998 8.88484 18.6187 8.72601 18.6187H1.18134V18.6085ZM2.97816 16.1136C2.97816 16.1136 2.97816 16.144 2.96823 16.144C2.96823 16.144 2.95831 16.144 2.95831 16.1744C2.95831 16.2049 2.95831 16.2049 2.98809 16.2049H8.74586C8.9047 16.2049 8.98412 16.1339 8.98412 15.9817V7.38134C8.98412 7.38134 8.98412 7.35091 8.95434 7.35091C8.91463 7.35091 8.9047 7.35091 8.9047 7.38134L2.97816 16.1136Z" fill="#008088"/>
<path d="M26.0217 1.00238C26.3839 1.04353 26.6756 1.19784 26.8869 1.47559C27.1082 1.75334 27.1886 2.07224 27.1283 2.422C26.8164 4.51028 26.4342 6.36195 25.9614 7.97703C25.9111 8.14162 25.8809 8.30621 25.8809 8.48109V24.5907C25.8809 24.9816 25.7501 25.3108 25.4785 25.5885C25.2069 25.8663 24.885 26 24.5027 26C24.1205 26 23.7986 25.8663 23.527 25.5885C23.2554 25.3108 23.1145 24.9816 23.1145 24.5907V14.1493C23.1145 14.1493 23.1045 14.1184 23.0743 14.1184C23.0441 14.1184 23.024 14.1184 23.0039 14.1493C22.9536 14.2624 22.8731 14.4167 22.7725 14.6225C22.6719 14.8282 22.6015 14.9517 22.5713 15.0134C22.4305 15.2911 22.1991 15.4146 21.8973 15.3734C21.5855 15.3323 21.3843 15.1677 21.2736 14.8694L21.1931 14.6431C20.8712 13.6761 20.9517 12.7297 21.4346 11.7832C22.8831 8.9543 23.9193 5.7653 24.5329 2.22655C24.6033 1.85621 24.7844 1.55789 25.0661 1.32128C25.3477 1.09497 25.6696 0.981809 26.0318 1.00238H26.0217ZM29.2508 26C28.8686 26 28.5467 25.8663 28.2751 25.5885C28.0035 25.3108 27.8727 24.9816 27.8727 24.5907V3.1421C27.8727 2.72033 28.0236 2.34999 28.3254 2.03109C28.6272 1.71219 28.9792 1.55789 29.4017 1.55789H44.4508C44.8633 1.55789 45.2254 1.71219 45.5373 2.03109C45.8491 2.34999 46 2.72033 46 3.1421V24.5598C46 24.9713 45.8692 25.3108 45.5876 25.5885C45.3059 25.8663 44.984 26 44.5816 26H44.149C43.8774 26 43.6461 25.8971 43.4449 25.6914C43.2437 25.4856 43.1431 25.249 43.1431 24.9713C43.1431 24.8787 43.0928 24.8376 42.9821 24.8376H30.8101C30.6994 24.8376 30.6491 24.8787 30.6491 24.9713C30.6491 25.249 30.5485 25.4856 30.3473 25.6914C30.1461 25.8971 29.9148 26 29.6432 26H29.2609H29.2508ZM30.6391 4.22224V22.2246C30.6391 22.3892 30.7195 22.4715 30.8805 22.4715H42.8815C43.0425 22.4715 43.123 22.3892 43.123 22.2246V4.22224C43.123 4.07822 43.0425 3.99592 42.8815 3.99592H30.8805C30.7195 3.99592 30.6391 4.06793 30.6391 4.22224ZM32.651 9.66411C32.3391 9.66411 32.0776 9.55095 31.8663 9.33492C31.645 9.10861 31.5444 8.84114 31.5444 8.53253C31.5444 8.22392 31.6551 7.94617 31.8663 7.73014C32.0776 7.51411 32.3492 7.40095 32.651 7.40095H35.2866C35.4475 7.40095 35.528 7.31865 35.528 7.15406V5.96076C35.528 5.56985 35.6588 5.24066 35.9203 4.9732C36.1819 4.70573 36.5038 4.572 36.886 4.572C37.2683 4.572 37.5902 4.70573 37.8518 4.9732C38.1133 5.24066 38.2441 5.56985 38.2441 5.96076V7.15406C38.2441 7.31865 38.3246 7.40095 38.4855 7.40095H41.1211C41.433 7.40095 41.6945 7.51411 41.9058 7.73014C42.1271 7.95645 42.2277 8.22392 42.2277 8.53253C42.2277 8.84114 42.117 9.11889 41.9058 9.33492C41.6845 9.56124 41.4229 9.66411 41.1211 9.66411H38.4855C38.3246 9.66411 38.2441 9.7464 38.2441 9.911V12.2667C38.2441 12.4313 38.3246 12.5136 38.4855 12.5136H39.8134C40.2258 12.5136 40.588 12.6679 40.8998 12.9868C41.2117 13.3057 41.3625 13.6761 41.3625 14.0978V19.3443C41.3625 19.7763 41.2117 20.1364 40.8998 20.4553C40.588 20.7742 40.2258 20.9285 39.8134 20.9285H33.9487C33.5262 20.9285 33.1741 20.7742 32.8622 20.4553C32.5504 20.1364 32.3995 19.766 32.3995 19.3443V14.0978C32.3995 13.6761 32.5504 13.3057 32.8622 12.9868C33.1741 12.6679 33.5362 12.5136 33.9487 12.5136H35.2765C35.4375 12.5136 35.5179 12.4313 35.5179 12.2667V9.911C35.5179 9.7464 35.4375 9.66411 35.2765 9.66411H32.6409H32.651ZM38.4855 14.7768H35.2765C35.1156 14.7768 35.0351 14.8591 35.0351 15.0237V18.439C35.0351 18.583 35.1156 18.6653 35.2765 18.6653H38.4855C38.6263 18.6653 38.7068 18.5933 38.7068 18.439V15.0237C38.7068 14.8591 38.6364 14.7768 38.4855 14.7768Z" fill="#008088"/>
<path d="M54.4857 20.0316C54.6903 19.7451 54.9664 19.5573 55.3142 19.4684C55.662 19.3795 56.0099 19.419 56.3372 19.5771C56.6543 19.7352 56.8487 19.9723 56.9407 20.2984C57.0328 20.6145 56.9816 20.9208 56.7975 21.2074C56.0815 22.2942 55.3245 23.302 54.5368 24.2505C54.3015 24.537 53.9844 24.705 53.5957 24.7544C53.207 24.8038 52.849 24.7346 52.5216 24.537C52.225 24.3592 52.0511 24.1023 52.0101 23.7664C51.9692 23.4304 52.0511 23.1241 52.2761 22.8574C53.1456 21.8397 53.8821 20.9011 54.4857 20.0316ZM60.4187 16.4846C60.4187 16.8995 60.2653 17.2454 59.9482 17.5516C59.6311 17.8579 59.2628 18.0061 58.8434 18.0061H53.6775C53.2581 18.0061 52.8899 17.8579 52.583 17.5516C52.2761 17.2454 52.1227 16.8897 52.1227 16.4846V3.65002C52.1227 3.24492 52.2761 2.88923 52.583 2.58294C52.8899 2.27665 53.2479 2.12844 53.6775 2.12844H58.8434C59.2628 2.12844 59.6311 2.27665 59.9482 2.58294C60.2653 2.88923 60.4187 3.24492 60.4187 3.65002V16.4846ZM57.6568 8.56054V4.77637C57.6568 4.61829 57.575 4.53925 57.4113 4.53925H55.171C55.0278 4.53925 54.946 4.61829 54.946 4.77637V8.56054C54.946 8.71863 55.0176 8.79767 55.171 8.79767H57.4113C57.575 8.79767 57.6568 8.71863 57.6568 8.56054ZM57.6568 15.4471V11.3666C57.6568 11.2085 57.575 11.1294 57.4113 11.1294H55.171C55.0278 11.1294 54.946 11.2085 54.946 11.3666V15.4471C54.946 15.5855 55.0176 15.6645 55.171 15.6645H57.4113C57.575 15.6645 57.6568 15.5953 57.6568 15.4471ZM59.7334 23.796C59.5492 22.6598 59.3958 21.7903 59.2628 21.2074C59.1912 20.8517 59.2628 20.5256 59.4674 20.2292C59.672 19.9328 59.9686 19.7747 60.3369 19.7352C60.7461 19.6858 61.1041 19.7648 61.4315 19.9921C61.7588 20.2193 61.9634 20.5157 62.0555 20.8813C62.2396 21.731 62.4033 22.6104 62.5567 23.4996C62.6078 23.8751 62.5158 24.211 62.2805 24.4975C62.0452 24.7939 61.7281 24.952 61.3394 24.9915C60.9507 25.0311 60.6029 24.9322 60.2858 24.6951C59.9686 24.4679 59.7845 24.1616 59.7334 23.7861V23.796ZM74.4535 2C74.8934 2 75.2719 2.14821 75.5686 2.44461C75.8652 2.74102 76.0186 3.09672 75.9982 3.52157C75.9573 5.38895 75.8243 6.78208 75.5788 7.71083C75.3435 8.63958 75.0059 9.25216 74.5661 9.54857C74.1364 9.85486 73.4817 10.0031 72.6225 10.0031C71.9576 10.0031 71.0267 9.97343 69.8298 9.92403C69.5025 9.90427 69.2161 9.7857 68.991 9.54857C68.7557 9.32133 68.633 9.04468 68.6228 8.71862C68.6023 8.4321 68.7046 8.18509 68.9296 7.96772C69.1547 7.75035 69.4104 7.65155 69.7071 7.67131C70.2595 7.71083 70.8835 7.72071 71.5893 7.72071C72.1826 7.72071 72.5713 7.53299 72.7759 7.15753C72.9805 6.78208 73.093 5.93237 73.1033 4.59853C73.1033 4.4602 73.0317 4.38116 72.8782 4.38116H69.3695C69.2263 4.38116 69.1342 4.45032 69.0933 4.59853C68.7967 5.88297 68.2238 7.05873 67.3645 8.13569C66.5053 9.21264 65.4312 10.1019 64.1423 10.8133C64.1218 10.833 64.1116 10.8528 64.1116 10.8824C64.1116 10.9121 64.132 10.9219 64.1627 10.9219H73.6659C74.0853 10.9219 74.4535 11.0701 74.7707 11.3764C75.0878 11.6827 75.2412 12.0384 75.2412 12.4435V17.0082C75.2412 17.4232 75.0878 17.769 74.7707 18.0753C74.4535 18.3816 74.0853 18.5298 73.6659 18.5298H63.6922C63.2728 18.5298 62.9045 18.3816 62.5874 18.0753C62.2703 17.769 62.1168 17.4133 62.1168 17.0082V11.8606C62.1168 11.742 62.0759 11.6037 61.9838 11.4654L61.6258 10.8824C61.4008 10.5465 61.3496 10.1908 61.4621 9.81534C61.5747 9.43989 61.8099 9.15336 62.1782 8.96563C64.2548 7.8294 65.6153 6.37699 66.2393 4.61829C66.2802 4.47996 66.2188 4.40092 66.0756 4.40092H62.9045C62.5567 4.40092 62.26 4.28236 62.0043 4.05511C61.7588 3.82786 61.636 3.54133 61.636 3.2054C61.636 2.86947 61.7588 2.58294 62.0043 2.35569C62.2498 2.12844 62.5567 2.00988 62.9045 2.00988H74.4535V2ZM64.9504 13.4414V15.9708C64.9504 16.1289 65.0322 16.2079 65.1959 16.2079H72.1315C72.2747 16.2079 72.3565 16.1289 72.3565 15.9708V13.4414C72.3565 13.2833 72.2849 13.2043 72.1315 13.2043H65.1959C65.0322 13.2043 64.9504 13.2833 64.9504 13.4414ZM68.0704 24.8828C67.6816 24.952 67.3236 24.8927 66.9758 24.705C66.6382 24.5173 66.3927 24.2505 66.2393 23.8948C65.8506 22.8969 65.4823 22.0176 65.1345 21.2568C64.9913 20.9406 64.9913 20.6244 65.1345 20.3083C65.2777 20.002 65.5335 19.7945 65.8813 19.7056C66.27 19.6166 66.6382 19.6562 66.9963 19.8142C67.3543 19.9723 67.6203 20.2292 67.7839 20.5849C67.9681 20.99 68.3568 21.9089 68.9399 23.3316C69.0729 23.6676 69.0422 23.9936 68.8683 24.29C68.6944 24.5864 68.4182 24.784 68.0499 24.873L68.0704 24.8828ZM75.6504 23.7367C75.5686 24.0727 75.3742 24.3295 75.0571 24.5074C74.74 24.6852 74.4024 24.7346 74.0239 24.6556C73.6454 24.5766 73.359 24.379 73.1544 24.0825C72.7452 23.4996 72.0087 22.5214 70.9448 21.1777C70.7198 20.911 70.6482 20.6047 70.7096 20.2589C70.7709 19.913 70.9551 19.6463 71.2517 19.4684C71.5791 19.2708 71.9371 19.2017 72.3054 19.2708C72.6736 19.3301 72.9805 19.5178 73.2158 19.8142C74.0239 20.8121 74.7809 21.8101 75.4765 22.7981C75.6811 23.0846 75.7425 23.3909 75.6606 23.7367H75.6504Z" fill="#008088"/>
<path d="M83.2071 23.7843C83.1143 24.1083 82.9083 24.3069 82.5785 24.38C82.2488 24.4532 81.9706 24.38 81.7336 24.1292C81.0638 23.4498 80.8577 22.6555 81.0947 21.7358C81.7233 19.2483 82.0427 15.6844 82.0427 11.0439V6.36162C82.0427 5.93311 82.1973 5.55686 82.5167 5.23286C82.8361 4.90886 83.2071 4.75209 83.6296 4.75209H92.5635C92.986 4.75209 93.3569 4.90886 93.6764 5.23286C93.9958 5.55686 94.1504 5.93311 94.1504 6.36162V10.1973C94.1504 10.5004 94.0473 10.7513 93.8413 10.9498C93.6352 11.1484 93.3879 11.2425 93.089 11.2425C92.9963 11.2425 92.9345 11.3052 92.8932 11.4411C92.852 11.5351 92.8005 11.7128 92.7181 11.9741C92.6356 12.2354 92.5635 12.4339 92.512 12.5698C92.4708 12.7161 92.512 12.7997 92.6459 12.7997H93.4806C93.7382 12.7997 93.9649 12.8938 94.1504 13.0819C94.3359 13.2701 94.4286 13.5 94.4286 13.7613C94.4286 14.0226 94.3359 14.2525 94.1504 14.4406C93.9649 14.6288 93.7382 14.7228 93.4806 14.7228H92.4192C92.275 14.7228 92.1925 14.796 92.1925 14.9528V15.8307C92.1925 15.9979 92.2647 16.0815 92.4192 16.0815H93.2024C93.46 16.0815 93.6867 16.1651 93.8722 16.3533C94.0577 16.5309 94.1504 16.7504 94.1504 17.0117C94.1504 17.273 94.0577 17.5029 93.8722 17.6911C93.6867 17.8792 93.46 17.9732 93.2024 17.9732H92.4192C92.275 17.9732 92.1925 18.0569 92.1925 18.2241V19.0707C92.1925 19.217 92.2647 19.3006 92.4192 19.3006H93.2024C93.46 19.3006 93.6867 19.3946 93.8722 19.5828C94.0577 19.7709 94.1504 20.0008 94.1504 20.2621C94.1504 20.5234 94.0577 20.7533 93.8722 20.9415C93.6867 21.1296 93.46 21.2237 93.2024 21.2237H92.4192C92.275 21.2237 92.1925 21.2968 92.1925 21.4536V22.3315C92.1925 22.4987 92.2647 22.5824 92.4192 22.5824H93.2024C93.6146 22.5824 93.9134 22.7496 94.1195 23.0945C94.1916 23.2304 94.274 23.2408 94.3668 23.1467C94.4801 23.0318 94.5729 22.9586 94.645 22.9168C96.0876 22.1225 97.2829 21.2864 98.2103 20.4084C98.2515 20.3875 98.2515 20.3562 98.2412 20.3144C98.2206 20.2726 98.1897 20.2412 98.1588 20.2412H96.7677C96.3452 20.2412 95.9743 20.0844 95.6548 19.7605C95.3354 19.4365 95.1808 19.0602 95.1808 18.6317V7.05142C95.1808 6.62291 95.3354 6.24666 95.6548 5.93311C95.9743 5.61957 96.3452 5.46279 96.7677 5.46279H98.2103C98.3752 5.46279 98.4782 5.38963 98.5195 5.23286C98.6122 4.90886 98.7359 4.41764 98.8801 3.73829C98.9213 3.57107 98.8492 3.48746 98.6843 3.48746H96.3452C96.0155 3.48746 95.727 3.36204 95.4797 3.12166C95.2427 2.88127 95.119 2.58863 95.119 2.24373C95.119 1.89883 95.2427 1.61664 95.4797 1.3658C95.7167 1.12542 96.0052 1 96.3452 1H105.805C106.134 1 106.423 1.12542 106.65 1.3658C106.876 1.60619 107 1.89883 107 2.24373C107 2.58863 106.887 2.87082 106.65 3.12166C106.423 3.36204 106.134 3.48746 105.805 3.48746H102.157C101.992 3.48746 101.899 3.55017 101.879 3.68604C101.858 3.801 101.827 3.95778 101.786 4.16681C101.745 4.37584 101.693 4.56396 101.662 4.73119C101.631 4.89841 101.59 5.06564 101.549 5.21196C101.508 5.37918 101.57 5.46279 101.714 5.46279H104.743C105.166 5.46279 105.537 5.61957 105.856 5.93311C106.176 6.24666 106.33 6.61246 106.33 7.05142V18.5899C106.33 19.0184 106.176 19.3946 105.856 19.7186C105.537 20.0426 105.166 20.1994 104.743 20.1994H102.682C102.682 20.1994 102.631 20.2099 102.631 20.2412C102.631 20.2726 102.631 20.2935 102.662 20.3144C104.053 21.0878 105.32 21.9448 106.474 22.8855C106.773 23.1258 106.938 23.4394 106.979 23.8052C107.021 24.171 106.928 24.5054 106.701 24.8085C106.495 25.0907 106.227 25.2475 105.877 25.2893C105.537 25.3311 105.228 25.237 104.949 25.0385C104.063 24.3591 103.064 23.6693 101.971 22.9795C101.6 22.7496 101.363 22.436 101.271 22.018C101.178 21.5999 101.25 21.2237 101.497 20.8579L101.827 20.4084C101.827 20.4084 101.868 20.3248 101.837 20.283C101.807 20.2412 101.765 20.2099 101.714 20.2099H99.045C99.045 20.2099 98.9832 20.2308 98.9625 20.283C98.9419 20.3248 98.9419 20.3771 98.9625 20.4084L99.2923 20.7742C99.5911 21.1296 99.7251 21.5372 99.7148 21.9866C99.6942 22.436 99.5087 22.8123 99.1583 23.1154C98.3237 23.8261 97.3138 24.5054 96.1288 25.143C95.7991 25.3311 95.4384 25.3729 95.0572 25.2579C94.6759 25.143 94.3874 24.9235 94.1813 24.6099C94.1607 24.589 94.1504 24.5681 94.1504 24.5577C94.0783 24.4218 93.9855 24.4009 93.8722 24.4741C93.6352 24.6413 93.4085 24.7249 93.2024 24.7249H87.9677C87.8544 24.7249 87.8029 24.7772 87.8029 24.8921C87.8029 25.2161 87.6998 25.4774 87.4937 25.6865C87.2876 25.8955 87.03 26 86.7106 26H86.4015C86.0099 26 85.6801 25.8641 85.4122 25.5924C85.1443 25.3207 85.0104 24.9862 85.0104 24.589V18.8094C85.0104 18.6421 84.9485 18.5272 84.8146 18.4749L84.5054 18.339C84.4539 18.3181 84.3921 18.3286 84.3406 18.3495C84.2891 18.3809 84.2581 18.4227 84.2581 18.4749C84.0314 20.5025 83.6811 22.2793 83.1968 23.8052L83.2071 23.7843ZM82.4858 3.35159C82.1663 3.35159 81.8984 3.23662 81.682 2.99624C81.4553 2.75585 81.3523 2.48411 81.3523 2.16012C81.3523 1.83612 81.4656 1.56438 81.682 1.3449C81.8984 1.12542 82.1766 1.01045 82.4858 1.01045H93.1921C93.5115 1.01045 93.7794 1.12542 94.0164 1.3449C94.2431 1.57483 94.3668 1.84657 94.3668 2.16012C94.3668 2.47366 94.2534 2.75585 94.0164 2.99624C93.7794 3.22617 93.5115 3.35159 93.1921 3.35159H82.4858ZM84.5467 12.6639C84.5467 13.7404 84.5467 14.5138 84.5158 15.005C84.5364 15.0259 84.557 15.0259 84.5982 15.005C85.1752 13.6881 85.6286 12.5071 85.9584 11.4515C85.9996 11.3156 85.9378 11.2529 85.7935 11.2529H84.794C84.6291 11.2529 84.5467 11.3261 84.5467 11.4829V12.6639ZM84.9692 7.25V8.74457C84.9692 8.91179 85.0516 8.9954 85.2165 8.9954H91.2033C91.3682 8.9954 91.4506 8.91179 91.4506 8.74457V7.25C91.4506 7.10368 91.3682 7.02007 91.2033 7.02007H85.2165C85.0516 7.02007 84.9692 7.09323 84.9692 7.25ZM89.8328 15.7993V14.9214C89.8328 14.7751 89.7504 14.6915 89.5855 14.6915H87.6895C87.5453 14.6915 87.4628 14.7646 87.4628 14.9214V15.7993C87.4628 15.9666 87.535 16.0502 87.6895 16.0502H89.5855C89.7504 16.0502 89.8328 15.9666 89.8328 15.7993ZM89.8328 19.0393V18.1927C89.8328 18.0255 89.7504 17.9419 89.5855 17.9419H87.6895C87.5453 17.9419 87.4628 18.0255 87.4628 18.1927V19.0393C87.4628 19.1856 87.535 19.2692 87.6895 19.2692H89.5855C89.7504 19.2692 89.8328 19.1961 89.8328 19.0393ZM89.8328 22.2897V21.4118C89.8328 21.2655 89.7504 21.1819 89.5855 21.1819H87.6895C87.5453 21.1819 87.4628 21.255 87.4628 21.4118V22.2897C87.4628 22.4569 87.535 22.5406 87.6895 22.5406H89.5855C89.7504 22.5406 89.8328 22.4569 89.8328 22.2897ZM90.4717 11.4829C90.5129 11.3365 90.4511 11.2529 90.3068 11.2529H88.6684C88.5036 11.2529 88.3902 11.3261 88.3387 11.4829C88.1944 11.9741 88.0811 12.3294 88.009 12.5594C87.9677 12.7057 88.0296 12.7893 88.1738 12.7893H89.7607C89.9256 12.7893 90.0389 12.7161 90.0904 12.5594C90.2553 12.1622 90.3893 11.8069 90.482 11.4829H90.4717ZM97.9012 7.95025V9.39256C97.9012 9.53888 97.9836 9.62249 98.1485 9.62249H103.156C103.321 9.62249 103.404 9.54933 103.404 9.39256V7.95025C103.404 7.78303 103.321 7.69942 103.156 7.69942H98.1485C97.9836 7.69942 97.9012 7.78303 97.9012 7.95025ZM97.9012 11.9845V13.4477C97.9012 13.615 97.9836 13.6986 98.1485 13.6986H103.156C103.321 13.6986 103.404 13.615 103.404 13.4477V11.9845C103.404 11.8173 103.321 11.7337 103.156 11.7337H98.1485C97.9836 11.7337 97.9012 11.8173 97.9012 11.9845ZM98.1485 17.8583H103.156C103.321 17.8583 103.404 17.7851 103.404 17.6283V16.0502C103.404 15.9038 103.321 15.8202 103.156 15.8202H98.1485C97.9836 15.8202 97.9012 15.8934 97.9012 16.0502V17.6283C97.9012 17.7747 97.9836 17.8583 98.1485 17.8583Z" fill="#008088"/>
<path d="M113.265 4.20472C112.926 4.20472 112.627 4.07077 112.378 3.81315C112.129 3.55554 112 3.23609 112 2.86513C112 2.49416 112.129 2.18503 112.378 1.93772C112.627 1.69041 112.926 1.55645 113.265 1.55645H119.32C119.679 1.55645 119.987 1.69041 120.236 1.94802C120.485 2.20564 120.615 2.51477 120.615 2.86513C120.615 3.23609 120.485 3.55554 120.236 3.81315C119.987 4.07077 119.679 4.20472 119.32 4.20472H118.005C117.846 4.20472 117.766 4.28716 117.766 4.45203V9.73828C117.766 9.90316 117.846 9.98559 118.005 9.98559H119.211C119.569 9.98559 119.868 10.1092 120.097 10.3463C120.326 10.5833 120.445 10.8924 120.445 11.2634C120.445 11.6343 120.326 11.9435 120.097 12.1805C119.868 12.4175 119.569 12.5411 119.211 12.5411H118.005C117.846 12.5411 117.766 12.6236 117.766 12.7884V18.5487C117.766 18.693 117.846 18.7548 118.005 18.7136C118.593 18.5281 119.121 18.3529 119.589 18.188C119.898 18.0953 120.177 18.1365 120.445 18.3014C120.714 18.4663 120.854 18.7136 120.874 19.0227C120.914 19.3731 120.834 19.7028 120.645 20.012C120.455 20.3211 120.187 20.5375 119.848 20.6611C117.926 21.3515 115.775 22.011 113.394 22.6602C113.076 22.753 112.767 22.7014 112.498 22.5057C112.219 22.3099 112.06 22.042 112.03 21.6813C111.99 21.3309 112.08 21.0012 112.289 20.6921C112.498 20.3829 112.777 20.1871 113.135 20.0944C113.315 20.0532 113.584 19.981 113.942 19.8677C114.301 19.7543 114.57 19.6822 114.749 19.641C114.888 19.5998 114.968 19.507 114.968 19.3628V12.7678C114.968 12.603 114.888 12.5205 114.729 12.5205H113.524C113.165 12.5205 112.866 12.3969 112.637 12.1599C112.408 11.9229 112.289 11.6137 112.289 11.2428C112.289 10.8718 112.408 10.5627 112.637 10.3256C112.866 10.0886 113.165 9.96499 113.524 9.96499H114.729C114.888 9.96499 114.968 9.88255 114.968 9.71768V4.43143C114.968 4.26655 114.888 4.18412 114.729 4.18412H113.275L113.265 4.20472ZM135.713 18.3941C136.092 18.4354 136.4 18.6002 136.649 18.8991C136.898 19.1979 137.018 19.5379 136.998 19.9295C136.908 21.5061 136.769 22.6087 136.58 23.2373C136.39 23.8659 136.102 24.278 135.703 24.4738C135.305 24.6696 134.598 24.783 133.582 24.8242C133.452 24.8242 133.263 24.8242 133.004 24.8551C132.745 24.8757 132.546 24.886 132.397 24.886C132.108 24.886 131.729 24.8654 131.271 24.8345C130.156 24.8139 129.459 24.6902 129.16 24.4429C128.861 24.2059 128.712 23.6495 128.712 22.8045V17.4049C128.712 17.24 128.642 17.1576 128.493 17.1576H127.467C127.327 17.1576 127.238 17.24 127.198 17.4049C126.71 21.0424 124.379 23.5464 120.177 24.9169C119.818 25.0509 119.469 25.02 119.131 24.8448C118.792 24.6696 118.543 24.3914 118.404 24.0204C118.274 23.6907 118.294 23.3609 118.444 23.0518C118.593 22.7324 118.842 22.5263 119.181 22.4129C122.208 21.3928 123.971 19.7234 124.449 17.4049C124.489 17.24 124.419 17.1576 124.26 17.1576H122.886C122.477 17.1576 122.119 17.003 121.82 16.6836C121.521 16.3641 121.372 15.9932 121.372 15.5707V2.58691C121.372 2.16442 121.521 1.79345 121.82 1.47401C122.119 1.15457 122.467 1 122.886 1H134.02C134.428 1 134.787 1.15457 135.096 1.47401C135.404 1.79345 135.554 2.16442 135.554 2.58691V15.5501C135.554 15.9726 135.404 16.3435 135.096 16.663C134.787 16.9824 134.428 17.137 134.02 17.137H131.759C131.6 17.137 131.52 17.2194 131.52 17.3843V21.3928C131.52 21.8049 131.55 22.0523 131.61 22.1553C131.67 22.2584 131.809 22.3202 132.028 22.3305H133.403C133.671 22.3099 133.851 22.2584 133.95 22.1656C134.05 22.0729 134.12 21.8462 134.179 21.4958C134.229 21.1455 134.279 20.5169 134.309 19.6307C134.329 19.2597 134.468 18.9506 134.737 18.7033C135.006 18.456 135.315 18.3426 135.683 18.3838L135.713 18.3941ZM124.15 3.76163V5.48249C124.15 5.64737 124.23 5.7298 124.389 5.7298H132.536C132.676 5.7298 132.755 5.64737 132.755 5.48249V3.76163C132.755 3.59675 132.685 3.51432 132.536 3.51432H124.389C124.23 3.51432 124.15 3.59675 124.15 3.76163ZM124.15 8.21321V9.93407C124.15 10.0989 124.23 10.1814 124.389 10.1814H132.536C132.676 10.1814 132.755 10.0989 132.755 9.93407V8.21321C132.755 8.04833 132.685 7.9659 132.536 7.9659H124.389C124.23 7.9659 124.15 8.04833 124.15 8.21321ZM124.389 14.6433H132.536C132.676 14.6433 132.755 14.5608 132.755 14.396V12.6751C132.755 12.5102 132.685 12.4278 132.536 12.4278H124.389C124.23 12.4278 124.15 12.5102 124.15 12.6751V14.396C124.15 14.5608 124.23 14.6433 124.389 14.6433Z" fill="#008088"/>
<path d="M143.146 9.82158C142.835 9.82158 142.573 9.71004 142.342 9.47683C142.111 9.25375 142 8.97998 142 8.66565C142 8.35132 142.111 8.07754 142.342 7.84433C142.563 7.61111 142.835 7.48944 143.146 7.48944H144.343C144.484 7.48944 144.564 7.41846 144.564 7.26636V2.4297C144.564 2.02411 144.705 1.6895 144.987 1.41573C145.268 1.14196 145.61 1 146.002 1C146.395 1 146.737 1.13182 147.018 1.41573C147.3 1.6895 147.44 2.02411 147.44 2.4297V7.2765C147.44 7.41846 147.511 7.49958 147.662 7.49958H148.989C149.301 7.49958 149.572 7.62125 149.804 7.85447C150.035 8.08768 150.156 8.36146 150.156 8.67579C150.156 8.99012 150.035 9.25375 149.804 9.48697C149.572 9.72018 149.301 9.83172 148.989 9.83172H147.662C147.521 9.83172 147.44 9.91284 147.44 10.0751V18.1463C147.44 18.2883 147.511 18.3491 147.662 18.3085C148.154 18.1666 148.708 17.9841 149.321 17.761C149.462 17.7204 149.492 17.6393 149.401 17.5176C149.261 17.2844 149.23 17.0107 149.321 16.7267C149.412 16.4327 149.582 16.2198 149.834 16.0677C150.99 15.3782 152.046 14.6075 152.982 13.7659C153.022 13.7254 153.022 13.695 153.012 13.6544C152.992 13.6138 152.961 13.6037 152.931 13.6037H150.87C150.558 13.6037 150.296 13.4922 150.085 13.259C149.864 13.0359 149.763 12.7621 149.763 12.4478C149.763 12.1334 149.874 11.8698 150.085 11.6569C150.296 11.4439 150.568 11.3324 150.87 11.3324H165.854C166.165 11.3324 166.427 11.4439 166.658 11.6569C166.879 11.8799 167 12.1436 167 12.4478C167 12.752 166.889 13.0257 166.658 13.259C166.427 13.4922 166.165 13.6037 165.854 13.6037H156.592C156.451 13.6037 156.32 13.6544 156.21 13.7659C156.069 13.9282 155.827 14.1715 155.506 14.5061C155.465 14.5264 155.465 14.5568 155.475 14.6177C155.496 14.6684 155.516 14.6988 155.556 14.6988H164.757C165.17 14.6988 165.532 14.8509 165.833 15.1551C166.135 15.4593 166.286 15.8142 166.286 16.24V16.5442C166.286 18.8764 166.165 20.6711 165.914 21.9082C165.673 23.1452 165.331 23.9665 164.878 24.3721C164.436 24.7777 163.812 24.9704 163.018 24.9704C162.404 24.9704 161.67 24.9399 160.815 24.8892C160.473 24.869 160.182 24.7473 159.951 24.5039C159.719 24.2606 159.578 23.9767 159.538 23.6319C159.518 23.3176 159.619 23.0539 159.85 22.8207C160.081 22.5875 160.343 22.4861 160.654 22.5064C161.379 22.547 161.851 22.5571 162.062 22.5571C162.384 22.5571 162.646 22.4354 162.827 22.2022C163.008 21.969 163.158 21.4417 163.279 20.6407C163.4 19.8396 163.46 18.6736 163.46 17.1323C163.46 16.9701 163.39 16.889 163.239 16.889H163.128C162.947 16.889 162.827 16.9498 162.776 17.0816C162.072 18.4302 161.137 19.7889 159.971 21.1578C158.804 22.5267 157.577 23.713 156.29 24.7169C155.998 24.9399 155.687 25.0312 155.335 24.9906C154.983 24.9501 154.691 24.8081 154.44 24.5546C154.218 24.3214 154.138 24.0476 154.178 23.7333C154.218 23.419 154.369 23.1655 154.631 22.9627C156.803 21.3403 158.633 19.3732 160.111 17.0512C160.182 16.9397 160.142 16.889 159.981 16.889H158.301C158.12 16.889 157.99 16.9397 157.919 17.0512C156.994 18.2173 155.878 19.3732 154.58 20.4987C153.273 21.6344 151.956 22.5875 150.618 23.3683C150.307 23.5305 149.995 23.5812 149.663 23.5204C149.331 23.4595 149.07 23.2872 148.848 23.0134C148.667 22.7802 148.607 22.5064 148.657 22.2022C148.708 21.898 148.868 21.6749 149.12 21.533C151.222 20.3466 153.122 18.846 154.822 17.0411C154.862 17.0005 154.862 16.9701 154.852 16.9295C154.832 16.889 154.812 16.8788 154.772 16.8788H153.062C152.921 16.8788 152.77 16.9194 152.63 17.0107C152.036 17.4264 151.553 17.761 151.191 17.9942C151.081 18.0652 150.9 18.126 150.648 18.1565C150.508 18.1565 150.447 18.2376 150.488 18.3998C150.528 18.7141 150.467 18.9981 150.327 19.2617C150.186 19.5253 149.965 19.7281 149.673 19.8498C147.662 20.6914 145.59 21.4012 143.458 21.9893C143.136 22.0603 142.835 22.0096 142.563 21.827C142.292 21.6445 142.131 21.391 142.07 21.0564C142.02 20.7117 142.091 20.3872 142.292 20.0931C142.493 19.7991 142.764 19.6064 143.106 19.5152C143.247 19.4746 143.468 19.4341 143.76 19.3631C144.051 19.3022 144.253 19.2515 144.383 19.211C144.504 19.1907 144.574 19.0994 144.574 18.9372V10.0345C144.574 9.87228 144.504 9.79116 144.353 9.79116H143.156L143.146 9.82158ZM152.76 1.11154H164.084C164.496 1.11154 164.858 1.26363 165.17 1.57797C165.482 1.8923 165.632 2.25733 165.632 2.67306V8.80761C165.632 9.23347 165.482 9.58837 165.17 9.9027C164.858 10.217 164.496 10.3691 164.084 10.3691H152.76C152.348 10.3691 151.986 10.217 151.684 9.9027C151.383 9.58837 151.232 9.22333 151.232 8.80761V2.67306C151.232 2.25733 151.383 1.8923 151.684 1.57797C151.986 1.26363 152.338 1.11154 152.76 1.11154ZM162.696 4.58947V3.62619C162.696 3.46396 162.615 3.38284 162.455 3.38284H154.259C154.098 3.38284 154.017 3.46396 154.017 3.62619V4.58947C154.017 4.75171 154.098 4.83282 154.259 4.83282H162.455C162.615 4.83282 162.696 4.75171 162.696 4.58947ZM162.696 8.14852V7.10413C162.696 6.94189 162.615 6.86077 162.455 6.86077H154.259C154.098 6.86077 154.017 6.94189 154.017 7.10413V8.14852C154.017 8.31076 154.098 8.39187 154.259 8.39187H162.455C162.615 8.39187 162.696 8.31076 162.696 8.14852Z" fill="#008088"/>
<path d="M173.283 6.52656C172.931 6.52656 172.631 6.40223 172.372 6.1432C172.124 5.89454 172 5.58372 172 5.21072C172 4.83773 172.124 4.52691 172.362 4.28861C172.6 4.05031 172.91 3.92598 173.283 3.92598H176.635C176.801 3.92598 176.883 3.84309 176.883 3.67731V1.46009C176.883 1.04565 177.028 0.703743 177.318 0.423999C177.608 0.144255 177.959 0.00956389 178.363 0.00956389C178.766 0.00956389 179.118 0.144255 179.398 0.423999C179.677 0.703743 179.811 1.04565 179.811 1.46009V3.66695C179.811 3.83273 179.894 3.91561 180.06 3.91561H183.557C183.929 3.91561 184.24 4.03994 184.478 4.27825C184.715 4.51655 184.84 4.82737 184.84 5.20036C184.84 5.57335 184.715 5.88418 184.467 6.13284C184.219 6.3815 183.908 6.51619 183.557 6.51619H180.06C179.894 6.51619 179.811 6.58872 179.811 6.74413V11.448C179.811 11.6137 179.894 11.6966 180.06 11.6966H182.263C182.491 11.6966 182.657 11.7174 182.77 11.7484C182.915 11.7899 182.998 11.7484 182.998 11.6137C183.039 11.3754 183.101 11.1475 183.195 10.9403C184.757 8.19466 186.029 4.94134 186.992 1.18034C187.085 0.807352 187.292 0.506886 187.623 0.289308C187.943 0.0613682 188.306 -0.0318796 188.699 0.00956389C189.071 0.0510074 189.371 0.227142 189.589 0.537969C189.816 0.859156 189.889 1.20106 189.816 1.57406C189.671 2.15427 189.485 2.82772 189.257 3.61515C189.216 3.78092 189.278 3.86381 189.423 3.86381H196.717C197.069 3.86381 197.369 3.98814 197.628 4.22644C197.876 4.46474 198 4.77557 198 5.14856C198 5.52155 197.876 5.83238 197.628 6.07068C197.379 6.30898 197.069 6.43331 196.717 6.43331H196.52C196.355 6.43331 196.272 6.50583 196.272 6.66125C195.92 11.8831 194.813 15.8099 192.951 18.4416C192.837 18.5763 192.837 18.7109 192.951 18.856C193.955 20.0268 195.258 21.125 196.862 22.13C197.183 22.3373 197.379 22.6066 197.462 22.9589C197.545 23.3112 197.493 23.6324 197.307 23.9536C197.121 24.2747 196.841 24.4716 196.469 24.5648C196.096 24.6581 195.755 24.6063 195.434 24.3991C193.717 23.3215 192.279 22.1404 191.099 20.8764C190.985 20.7624 190.871 20.7624 190.768 20.8764C189.32 22.1818 187.385 23.4044 184.984 24.5441C184.612 24.7099 184.25 24.741 183.877 24.627C183.515 24.513 183.226 24.2955 182.998 23.9536C182.905 23.8085 182.843 23.6324 182.801 23.4459C182.801 23.3008 182.719 23.2387 182.553 23.2801C182.501 23.3008 182.408 23.3112 182.274 23.3112H176.045C175.901 23.3112 175.818 23.3837 175.818 23.5391C175.818 23.9328 175.673 24.2747 175.394 24.5648C175.114 24.8549 174.783 25 174.39 25C173.997 25 173.666 24.8549 173.386 24.5648C173.107 24.2747 172.973 23.9328 172.973 23.5391V13.2715C172.973 12.8467 173.128 12.4737 173.448 12.1629C173.769 11.852 174.142 11.6966 174.566 11.6966H176.635C176.801 11.6966 176.883 11.6137 176.883 11.448V6.74413C176.883 6.59908 176.801 6.51619 176.635 6.51619H173.283V6.52656ZM180.908 14.2765H176.076C175.911 14.2765 175.828 14.3594 175.828 14.5252V20.5345C175.828 20.7002 175.911 20.7831 176.076 20.7831H180.908C181.074 20.7831 181.156 20.7002 181.156 20.5345V14.5252C181.156 14.3594 181.074 14.2765 180.908 14.2765ZM185.46 12.6809C185.16 13.2197 184.705 13.4269 184.095 13.2922C183.95 13.2508 183.867 13.3129 183.867 13.458V21.8503C183.867 21.9021 183.877 21.9539 183.908 21.985C183.94 22.0264 183.971 22.0264 184.002 22.0161C186.216 20.9696 187.933 19.8506 189.144 18.6591C189.257 18.5452 189.278 18.4312 189.195 18.2965C188.006 16.2969 187.116 13.8621 186.547 10.9714C186.526 10.9299 186.495 10.9196 186.464 10.9196C186.423 10.9196 186.402 10.9403 186.381 10.9714C186.174 11.3651 185.864 11.9349 185.46 12.6809ZM187.643 8.25682C187.602 8.35007 187.643 8.39151 187.757 8.39151C188.109 8.35007 188.419 8.44332 188.699 8.6609C188.968 8.87848 189.133 9.15822 189.185 9.51049C189.599 11.9867 190.22 14.1211 191.058 15.8928C191.13 16.0068 191.203 16.0068 191.285 15.8928C192.444 13.7688 193.179 10.702 193.489 6.69233C193.489 6.52656 193.417 6.44367 193.261 6.44367H188.595C188.43 6.44367 188.316 6.51619 188.264 6.67161C188.006 7.37615 187.799 7.91491 187.654 8.26718L187.643 8.25682Z" fill="#008088"/>
<path d="M204.12 17.498C203.804 17.498 203.54 17.386 203.326 17.1722C203.102 16.9483 203 16.6836 203 16.3783C203 16.0729 203.112 15.798 203.326 15.5843C203.54 15.3705 203.814 15.2585 204.12 15.2585H213.688C213.831 15.2585 213.912 15.1873 213.912 15.0346V14.1287C213.912 13.9658 213.841 13.8844 213.688 13.8844H205.199C204.883 13.8844 204.629 13.7724 204.415 13.5586C204.201 13.3449 204.099 13.0802 204.099 12.785C204.099 12.4898 204.201 12.2353 204.415 12.0114C204.629 11.7875 204.883 11.6857 205.199 11.6857H213.688C213.831 11.6857 213.912 11.6042 213.912 11.4414V10.8103C213.912 10.6678 213.841 10.5863 213.688 10.5863H206.685C206.268 10.5863 205.901 10.4336 205.586 10.1181C205.27 9.80252 205.117 9.43607 205.117 9.01873V6.65717C205.117 6.23982 205.27 5.87337 205.586 5.55782C205.901 5.24226 206.268 5.08958 206.685 5.08958H213.688C213.831 5.08958 213.912 5.00814 213.912 4.84528V4.21417C213.912 4.07166 213.841 3.99023 213.688 3.99023H204.395C204.079 3.99023 203.814 3.87826 203.601 3.6645C203.377 3.44055 203.275 3.1759 203.275 2.87052C203.275 2.56515 203.387 2.29031 203.601 2.05619C203.825 1.83225 204.089 1.7101 204.395 1.7101H213.688C213.831 1.7101 213.912 1.63884 213.912 1.48616C213.912 1.07899 214.055 0.732899 214.35 0.437704C214.645 0.142508 215.001 0 215.419 0H215.581C215.999 0 216.355 0.142508 216.65 0.437704C216.945 0.732899 217.088 1.07899 217.088 1.48616C217.088 1.62866 217.159 1.7101 217.312 1.7101H226.605C226.921 1.7101 227.186 1.82207 227.399 2.05619C227.623 2.29031 227.725 2.55497 227.725 2.87052C227.725 3.18607 227.613 3.45073 227.399 3.6645C227.175 3.88844 226.911 3.99023 226.605 3.99023H217.312C217.169 3.99023 217.088 4.06148 217.088 4.21417V4.84528C217.088 5.00814 217.159 5.08958 217.312 5.08958H224.315C224.732 5.08958 225.099 5.24226 225.415 5.55782C225.73 5.87337 225.883 6.23982 225.883 6.65717V9.01873C225.883 9.43607 225.73 9.80252 225.415 10.1181C225.099 10.4336 224.732 10.5863 224.315 10.5863H217.312C217.169 10.5863 217.088 10.6576 217.088 10.8103V11.4414C217.088 11.6042 217.159 11.6857 217.312 11.6857H224.651C225.068 11.6857 225.435 11.8384 225.75 12.1539C226.066 12.4695 226.219 12.8359 226.219 13.2533V15.0346C226.219 15.1771 226.29 15.2585 226.443 15.2585H226.88C227.196 15.2585 227.461 15.3705 227.674 15.5843C227.888 15.798 228 16.0729 228 16.3783C228 16.6836 227.888 16.9585 227.674 17.1722C227.45 17.3962 227.186 17.498 226.88 17.498H226.443C226.3 17.498 226.219 17.5794 226.219 17.7423V21.0098C226.219 21.4169 226.076 21.7528 225.801 22.0379C225.526 22.3229 225.191 22.4654 224.783 22.4654H224.509C224.183 22.4654 223.898 22.3432 223.674 22.1091C223.45 21.875 223.328 21.59 223.328 21.2541C223.328 21.1421 223.267 21.0912 223.134 21.0912H217.312C217.169 21.0912 217.088 21.1625 217.088 21.3151V21.702C217.088 23.2085 216.874 24.1246 216.447 24.4809C216.019 24.827 214.879 25 213.026 25C212.619 25 211.662 24.9695 210.146 24.9186C209.82 24.8982 209.535 24.7761 209.311 24.5521C209.087 24.318 208.955 24.0432 208.945 23.7174C208.924 23.4019 209.026 23.1372 209.26 22.9031C209.484 22.669 209.759 22.5672 210.075 22.5875C211.316 22.6384 212.202 22.669 212.711 22.669C213.332 22.669 213.688 22.6384 213.78 22.5774C213.871 22.5163 213.912 22.3025 213.912 21.9361V21.3355C213.912 21.193 213.841 21.1116 213.688 21.1116H205.168C204.873 21.1116 204.618 21.0098 204.415 20.796C204.211 20.5822 204.099 20.3379 204.099 20.0428C204.099 19.7476 204.201 19.4931 204.415 19.2895C204.629 19.0757 204.873 18.9739 205.168 18.9739H213.688C213.831 18.9739 213.912 18.8925 213.912 18.7296V17.7626C213.912 17.5998 213.841 17.5183 213.688 17.5183H204.12V17.498ZM213.688 8.65228C213.831 8.65228 213.912 8.58103 213.912 8.42834V7.37989C213.912 7.21702 213.841 7.13559 213.688 7.13559H208.242C208.079 7.13559 207.998 7.21702 207.998 7.37989V8.42834C207.998 8.57085 208.079 8.65228 208.242 8.65228H213.688ZM217.098 7.39006V8.43852C217.098 8.58103 217.169 8.66246 217.322 8.66246H222.768C222.931 8.66246 223.012 8.5912 223.012 8.43852V7.39006C223.012 7.2272 222.931 7.14577 222.768 7.14577H217.322C217.18 7.14577 217.098 7.2272 217.098 7.39006ZM217.098 14.1185V15.0244C217.098 15.1669 217.169 15.2484 217.322 15.2484H223.094C223.257 15.2484 223.338 15.1771 223.338 15.0244V14.1185C223.338 13.9556 223.257 13.8742 223.094 13.8742H217.322C217.18 13.8742 217.098 13.9556 217.098 14.1185ZM217.098 17.7423V18.7093C217.098 18.8721 217.169 18.9536 217.322 18.9536H223.094C223.257 18.9536 223.338 18.8721 223.338 18.7093V17.7423C223.338 17.5794 223.257 17.498 223.094 17.498H217.322C217.18 17.498 217.098 17.5794 217.098 17.7423Z" fill="#008088"/>
<path d="M236.074 26C235.723 26 235.434 25.8704 235.228 25.6011C235.011 25.3319 234.949 25.0328 235.042 24.7137L236.208 20.4858C236.342 20.057 236.59 19.698 236.962 19.4188C237.333 19.1396 237.746 19 238.211 19H238.933C239.305 19 239.594 19.1496 239.81 19.4487C240.027 19.7479 240.058 20.067 239.903 20.406L237.983 24.7635C237.612 25.5912 236.972 26 236.064 26H236.074Z" fill="#008088"/>
<path d="M264.737 20.234C264.454 20.4399 264.14 20.4914 263.805 20.3987C263.47 20.306 263.229 20.0898 263.103 19.7603C262.967 19.3896 262.967 19.0087 263.093 18.6174C263.219 18.2261 263.449 17.9172 263.784 17.6701C266.276 15.9609 268.308 13.984 269.889 11.7188C269.962 11.6055 269.931 11.554 269.774 11.554H264.433C264.109 11.554 263.836 11.4407 263.617 11.2039C263.386 10.9671 263.281 10.6994 263.281 10.3802C263.281 10.061 263.397 9.79331 263.617 9.57708C263.836 9.36086 264.119 9.24759 264.433 9.24759H271.167C271.334 9.24759 271.449 9.17552 271.502 9.02107C271.732 8.57832 271.889 8.23854 271.983 8.02231C272.057 7.87816 272.015 7.79579 271.837 7.79579H266.234C265.931 7.79579 265.669 7.68253 265.439 7.4663C265.208 7.25007 265.104 6.98236 265.104 6.68377C265.104 6.38517 265.219 6.12775 265.439 5.90123C265.659 5.67471 265.931 5.57174 266.234 5.57174H272.685C272.821 5.57174 272.915 5.48937 272.999 5.32463L273.251 4.49061C273.292 4.34646 273.23 4.26409 273.083 4.26409C270.402 4.33616 268.318 4.37735 266.81 4.37735C266.486 4.37735 266.203 4.26409 265.952 4.04786C265.7 3.82134 265.564 3.55363 265.543 3.24473C265.522 2.92554 265.627 2.65783 265.837 2.42101C266.056 2.19449 266.308 2.07093 266.611 2.07093C274.005 2.05034 280.204 1.70026 285.22 1.01039C285.555 0.969208 285.869 1.05158 286.162 1.23692C286.455 1.42225 286.633 1.67967 286.717 2.01945C286.79 2.33864 286.738 2.62694 286.55 2.89465C286.361 3.16236 286.11 3.31681 285.785 3.358C283.167 3.68748 280.13 3.9449 276.685 4.10964C276.539 4.10964 276.444 4.19201 276.403 4.35676C276.308 4.72743 276.214 5.05692 276.12 5.33492C276.078 5.49967 276.141 5.58204 276.287 5.58204H286.047C286.351 5.58204 286.612 5.6953 286.843 5.91153C287.073 6.12775 287.178 6.39546 287.178 6.69406C287.178 6.99266 287.063 7.25007 286.843 7.4766C286.623 7.70312 286.351 7.80608 286.047 7.80608H275.471C275.303 7.80608 275.188 7.87816 275.135 8.03261C275.041 8.25913 274.884 8.58862 274.654 9.03137C274.58 9.17552 274.622 9.25789 274.79 9.25789H287.848C288.173 9.25789 288.445 9.37115 288.665 9.58738C288.885 9.80361 289 10.0816 289 10.3905C289 10.6994 288.885 10.9774 288.665 11.2142C288.435 11.4407 288.162 11.5643 287.848 11.5643H273.481C273.313 11.5643 273.188 11.6261 273.114 11.7599C272.853 12.1718 272.643 12.4704 272.497 12.6763C272.402 12.8102 272.434 12.872 272.58 12.872H284.937C285.366 12.872 285.743 13.0264 286.068 13.3456C286.393 13.6648 286.55 14.0355 286.55 14.4576V24.4967C286.55 24.9086 286.393 25.2587 286.078 25.5573C285.764 25.8558 285.398 26 284.958 26H284.392C284.131 26 283.9 25.9073 283.712 25.722C283.523 25.5367 283.429 25.3101 283.429 25.0527C283.429 24.9395 283.377 24.888 283.262 24.888H271.983C271.889 24.888 271.837 24.9395 271.837 25.0527C271.837 25.3101 271.743 25.5367 271.544 25.722C271.345 25.9073 271.114 26 270.853 26H270.318C269.889 26 269.523 25.8559 269.229 25.5675C268.936 25.2792 268.79 24.9292 268.79 24.5276V16.9391C268.79 16.9391 268.769 16.8773 268.737 16.8567C268.695 16.8361 268.664 16.8361 268.622 16.8567C267.25 18.2261 265.952 19.3588 264.748 20.2443L264.737 20.234ZM271.837 15.3431V16.1771C271.837 16.3419 271.91 16.4243 272.067 16.4243H283.178C283.345 16.4243 283.429 16.3419 283.429 16.1771V15.3431C283.429 15.1784 283.345 15.096 283.178 15.096H272.067C271.921 15.096 271.837 15.1784 271.837 15.3431ZM271.837 18.5453V19.3794C271.837 19.5441 271.91 19.6265 272.067 19.6265H283.178C283.345 19.6265 283.429 19.5441 283.429 19.3794V18.5453C283.429 18.3806 283.345 18.2982 283.178 18.2982H272.067C271.921 18.2982 271.837 18.3806 271.837 18.5453ZM271.837 21.7373V22.5713C271.837 22.736 271.91 22.8184 272.067 22.8184H283.178C283.345 22.8184 283.429 22.736 283.429 22.5713V21.7373C283.429 21.5725 283.345 21.4901 283.178 21.4901H272.067C271.921 21.4901 271.837 21.5725 271.837 21.7373Z" fill="#008088"/>
<path d="M296.717 24.9546C296.36 25.0473 296.024 24.9958 295.718 24.8206C295.411 24.6455 295.183 24.357 295.065 23.9861C294.956 23.6564 294.986 23.3267 295.144 23.0073C295.302 22.6879 295.549 22.4922 295.896 22.42C299.526 21.4412 301.583 19.7618 302.068 17.3818C302.107 17.217 302.038 17.1346 301.88 17.1346H298.625C298.22 17.1346 297.864 16.98 297.557 16.6606C297.251 16.3412 297.102 15.9703 297.102 15.5479V2.58667C297.102 2.16424 297.251 1.79333 297.557 1.47394C297.864 1.15455 298.22 1 298.625 1H314.273C314.679 1 315.035 1.15455 315.341 1.47394C315.648 1.79333 315.796 2.16424 315.796 2.58667V15.5479C315.796 15.9703 315.648 16.3412 315.341 16.6606C315.035 16.98 314.679 17.1346 314.273 17.1346H310.613C310.455 17.1346 310.376 17.217 310.376 17.3818V21.3897C310.376 21.8225 310.425 22.08 310.524 22.1728C310.623 22.2655 310.91 22.317 311.395 22.3376C311.622 22.3582 311.978 22.3685 312.463 22.3685C312.948 22.3685 313.333 22.3685 313.581 22.3376C314.065 22.317 314.392 22.2552 314.57 22.1625C314.748 22.0594 314.896 21.8225 315.015 21.4515C315.134 21.0806 315.213 20.4419 315.272 19.5352C315.312 19.1437 315.46 18.8243 315.737 18.577C316.014 18.3297 316.34 18.2164 316.716 18.2576C317.112 18.2988 317.428 18.4637 317.676 18.7728C317.923 19.0818 318.032 19.4322 317.992 19.8443C317.943 20.6582 317.883 21.3279 317.814 21.8328C317.755 22.3479 317.636 22.8012 317.478 23.1928C317.319 23.5946 317.161 23.8831 317.013 24.0685C316.864 24.254 316.597 24.4085 316.241 24.5322C315.875 24.6558 315.519 24.7279 315.173 24.7691C314.827 24.8103 314.323 24.8309 313.66 24.8516C313.502 24.8516 313.254 24.8516 312.938 24.8619C312.621 24.8619 312.364 24.8722 312.186 24.8722C311.563 24.8722 311.088 24.8722 310.772 24.8413C309.328 24.7897 308.427 24.6352 308.061 24.3982C307.696 24.1613 307.517 23.6152 307.517 22.7806V17.3818C307.517 17.217 307.438 17.1346 307.28 17.1346H305.223C305.084 17.1346 304.995 17.217 304.956 17.3818C304.422 21.0909 301.682 23.6152 296.726 24.9443L296.717 24.9546ZM299.971 3.76122V5.48183C299.971 5.64667 300.04 5.7291 300.188 5.7291H312.69C312.849 5.7291 312.928 5.64667 312.928 5.48183V3.76122C312.928 3.59637 312.849 3.51394 312.69 3.51394H300.188C300.05 3.51394 299.971 3.59637 299.971 3.76122ZM299.971 8.21213V9.93274C299.971 10.0976 300.04 10.18 300.188 10.18H312.69C312.849 10.18 312.928 10.0976 312.928 9.93274V8.21213C312.928 8.04728 312.849 7.96486 312.69 7.96486H300.188C300.05 7.96486 299.971 8.04728 299.971 8.21213ZM300.188 14.6412H312.69C312.849 14.6412 312.928 14.5588 312.928 14.394V12.6734C312.928 12.5085 312.849 12.4261 312.69 12.4261H300.188C300.05 12.4261 299.971 12.5085 299.971 12.6734V14.394C299.971 14.5588 300.04 14.6412 300.188 14.6412Z" fill="#008088"/>
<path d="M328.62 24.9456C327.815 24.9456 327.407 24.5366 327.407 23.7288V10.0892C327.02 10.6618 326.643 11.1628 326.276 11.6127C325.858 12.0932 325.481 12.3284 325.165 12.3182C324.839 12.3182 324.543 12.0319 324.268 11.4798C324.064 11.0912 323.983 10.7538 324.003 10.4573C324.034 10.1608 324.187 9.86428 324.482 9.54731C326.551 7.17521 328.294 4.30209 329.68 0.938201C329.976 0.161132 330.506 -0.114932 331.28 0.110009C332.126 0.365624 332.381 0.897303 332.055 1.6846C331.372 3.30008 330.628 4.844 329.823 6.29589V23.7391C329.823 24.5468 329.415 24.9558 328.61 24.9558L328.62 24.9456ZM336.845 23.9742C336.458 22.9211 336.988 22.4201 338.446 22.4508C338.558 22.4508 338.7 22.4508 338.884 22.4201H339.047C339.373 22.4201 339.546 22.2769 339.546 21.9804V7.13431H335.857C335.286 8.37148 334.674 9.50641 334.012 10.5595C333.737 10.9685 333.461 11.1832 333.186 11.2241C332.911 11.265 332.585 11.1219 332.208 10.8152C331.831 10.4982 331.617 10.2119 331.576 9.94607C331.525 9.68023 331.657 9.35305 331.943 8.96451C333.339 6.96049 334.471 4.32254 335.357 1.07112C335.592 0.20203 336.122 -0.135382 336.927 0.0486612C337.773 0.253153 338.079 0.754159 337.865 1.57213C337.61 2.51279 337.263 3.57615 336.815 4.77243H347.354C347.945 4.77243 348.383 4.95647 348.679 5.32455C348.974 5.69264 349.066 6.19364 348.954 6.81735C348.791 7.87048 348.566 9.02586 348.291 10.2937C348.22 10.6209 348.077 10.8356 347.873 10.9276C347.69 10.9992 347.415 10.9992 347.048 10.9276C346.294 10.7845 345.988 10.396 346.11 9.77225C346.273 8.78047 346.395 7.90115 346.467 7.15476H342.033V22.0111C342.033 22.6961 341.952 23.2278 341.789 23.6164C341.625 24.0049 341.34 24.3014 340.932 24.5264C340.423 24.782 339.679 24.9456 338.7 24.9967C337.712 25.0376 337.09 24.7002 336.825 24.0049L336.845 23.9742ZM333.655 20.9682C333.38 21.0193 333.064 20.9273 332.687 20.6921C332.279 20.4365 332.055 20.1707 332.004 19.9048C331.953 19.639 332.045 19.3118 332.31 18.9233C333.319 17.318 334.155 15.3038 334.817 12.8805C335.041 12.0012 335.541 11.6434 336.336 11.8069C337.182 11.9705 337.487 12.4818 337.273 13.3304C336.927 14.6392 336.489 15.9275 335.979 17.1953C335.541 18.2996 335.021 19.3527 334.44 20.3445C334.206 20.7126 333.941 20.9273 333.665 20.9784L333.655 20.9682ZM346.895 20.8557C346.64 20.7432 346.477 20.4467 346.396 19.9764C346.161 18.9233 345.855 17.8804 345.488 16.8272C345.081 15.5594 344.622 14.3529 344.112 13.2077C343.766 12.4511 344 11.9399 344.826 11.6638C345.509 11.4389 345.998 11.6638 346.314 12.2977C347.466 14.7107 348.322 17.0931 348.872 19.4447C348.944 19.7924 348.913 20.0786 348.76 20.3036C348.628 20.4876 348.373 20.641 347.986 20.7739C347.506 20.9375 347.14 20.9682 346.885 20.8557H346.895Z" fill="#008088"/>
<path d="M357.376 24.433C357.095 24.7113 356.764 24.8454 356.383 24.8454C356.002 24.8454 355.682 24.7113 355.411 24.433C355.14 24.1546 355 23.8247 355 23.4329V5.3391C355 4.91639 355.15 4.54524 355.461 4.22563C355.772 3.90603 356.133 3.75138 356.544 3.75138H357.676C357.817 3.75138 357.917 3.67921 357.977 3.52456C358.338 2.55543 358.599 1.81312 358.759 1.29763C358.889 0.905856 359.12 0.59656 359.451 0.349123C359.782 0.111997 360.142 0.0192079 360.523 0.0707572C360.884 0.122307 361.165 0.318194 361.375 0.6378C361.586 0.967715 361.636 1.29763 361.526 1.65848C361.476 1.84405 361.255 2.47295 360.874 3.55549C360.834 3.68952 360.894 3.75138 361.035 3.75138H363.15C363.561 3.75138 363.922 3.90603 364.222 4.22563C364.523 4.54524 364.673 4.91639 364.673 5.3391V8.7929C364.673 8.7929 364.693 8.85476 364.724 8.86507C364.764 8.86507 364.794 8.86507 364.834 8.82383C366.277 6.61752 367.41 4.08129 368.242 1.22546C368.352 0.833687 368.573 0.524391 368.904 0.297574C369.234 0.0707572 369.605 -0.0323414 369.996 0.00889808C370.357 0.0501375 370.638 0.225405 370.848 0.534701C371.059 0.854307 371.109 1.18422 370.999 1.53476C370.868 1.96777 370.718 2.44203 370.538 2.97814C370.498 3.12248 370.538 3.20495 370.668 3.20495H377.484C377.895 3.20495 378.256 3.36991 378.567 3.68952C378.878 4.01943 379.018 4.39059 378.998 4.81329C378.908 9.63831 378.798 13.3705 378.677 16.0201C378.547 18.6697 378.347 20.6699 378.066 22.0308C377.785 23.3917 377.484 24.2268 377.174 24.5361C376.853 24.8454 376.382 25 375.75 25C374.628 25 373.144 24.9484 371.279 24.8557C370.919 24.835 370.608 24.6907 370.357 24.4226C370.107 24.1546 369.966 23.835 369.946 23.4638C369.926 23.1133 370.036 22.8143 370.267 22.5772C370.498 22.3401 370.788 22.2266 371.129 22.2473C372.302 22.3194 373.415 22.3607 374.457 22.3607C374.768 22.3607 375.008 22.0411 375.189 21.4122C375.369 20.7833 375.54 19.2574 375.7 16.8346C375.861 14.4118 376.011 10.8136 376.131 6.05048C376.131 5.88552 376.061 5.80304 375.911 5.80304H369.635C369.505 5.80304 369.415 5.8649 369.335 5.99893C368.433 7.99904 367.42 9.77234 366.307 11.3188C365.926 11.824 365.445 11.9168 364.844 11.6281C364.804 11.5869 364.764 11.5869 364.703 11.6178C364.653 11.6487 364.623 11.69 364.623 11.7415V21.206C364.623 21.6287 364.473 21.9998 364.172 22.3194C363.871 22.639 363.521 22.7937 363.1 22.7937H357.957C357.817 22.7937 357.737 22.8762 357.737 23.0411V23.4535C357.737 23.8453 357.596 24.1752 357.316 24.4536L357.376 24.433ZM357.797 6.50411V11.7415C357.797 11.9065 357.867 11.989 358.017 11.989H361.756C361.917 11.989 361.997 11.9065 361.997 11.7415V6.50411C361.997 6.33915 361.917 6.25667 361.756 6.25667H358.017C357.877 6.25667 357.797 6.33915 357.797 6.50411ZM357.797 14.6592V20.0925C357.797 20.2575 357.867 20.3399 358.017 20.3399H361.756C361.917 20.3399 361.997 20.2575 361.997 20.0925V14.6592C361.997 14.4943 361.917 14.4118 361.756 14.4118H358.017C357.877 14.4118 357.797 14.4943 357.797 14.6592ZM373.455 16.2366C373.324 16.5975 373.084 16.8552 372.743 16.9995C372.402 17.1439 372.061 17.1542 371.731 17.0099C371.4 16.8758 371.159 16.6284 371.009 16.2779C370.217 14.4633 369.405 12.8137 368.573 11.3497C368.392 11.0301 368.352 10.7002 368.453 10.3291C368.553 9.95791 368.763 9.70017 369.084 9.53521C369.425 9.34963 369.776 9.30839 370.137 9.41149C370.498 9.51459 370.768 9.7311 370.949 10.061C371.851 11.659 372.683 13.3602 373.435 15.1541C373.575 15.5046 373.585 15.8655 373.445 16.2263L373.455 16.2366Z" fill="#008088"/>
<path d="M387.478 24.5823C387.201 24.8574 386.861 25 386.45 25C386.039 25 385.699 24.8676 385.422 24.5823C385.144 24.3073 385 23.9711 385 23.5637V2.57895C385 2.16129 385.154 1.79457 385.463 1.47878C385.771 1.16299 386.131 1.01019 386.563 1.01019H394.532C394.954 1.01019 395.324 1.16299 395.643 1.47878C395.961 1.79457 396.116 2.16129 396.116 2.57895V9.76061C396.116 10.1783 395.961 10.545 395.643 10.8608C395.324 11.1766 394.954 11.3294 394.532 11.3294H388.147C387.982 11.3294 387.9 11.4109 387.9 11.5739V23.5637C387.9 23.9711 387.766 24.3073 387.488 24.5823H387.478ZM387.889 3.59762V5.11545C387.889 5.27844 387.972 5.35993 388.136 5.35993H393C393.165 5.35993 393.247 5.27844 393.247 5.11545V3.59762C393.247 3.43464 393.165 3.35314 393 3.35314H388.136C387.972 3.35314 387.889 3.43464 387.889 3.59762ZM387.889 7.49915V9.03735C387.889 9.17997 387.972 9.26146 388.136 9.26146H393C393.165 9.26146 393.247 9.19015 393.247 9.03735V7.49915C393.247 7.35654 393.165 7.27504 393 7.27504H388.136C387.972 7.27504 387.889 7.34635 387.889 7.49915ZM402.964 20.202C402.964 20.6299 402.81 20.9864 402.491 21.3022C402.172 21.618 401.802 21.7708 401.38 21.7708H394.049C393.915 21.7708 393.853 21.8319 393.853 21.9643C393.853 22.2903 393.74 22.5756 393.504 22.7997C393.267 23.0238 392.99 23.146 392.661 23.146H392.434C392.044 23.146 391.715 23.0034 391.437 22.7284C391.159 22.4533 391.026 22.1273 391.026 21.7402V14.7216C391.026 14.3039 391.18 13.9372 391.499 13.6214C391.817 13.3056 392.188 13.1528 392.609 13.1528H401.38C401.802 13.1528 402.172 13.3056 402.491 13.6214C402.81 13.9372 402.964 14.3039 402.964 14.7216V20.1919V20.202ZM400.105 19.2649V15.6893C400.105 15.5263 400.033 15.4448 399.879 15.4448H394.1C393.936 15.4448 393.853 15.5263 393.853 15.6893V19.2649C393.853 19.4075 393.936 19.489 394.1 19.489H399.879C400.023 19.489 400.105 19.4177 400.105 19.2649ZM407.437 1C407.859 1 408.229 1.1528 408.537 1.46859C408.846 1.78438 409 2.1511 409 2.56876V20.8642C409 22.6774 408.794 23.798 408.373 24.236C407.951 24.674 406.851 24.8778 405.051 24.8778C404.609 24.8778 403.817 24.8472 402.697 24.7963C402.347 24.7759 402.049 24.6537 401.792 24.4092C401.545 24.1749 401.411 23.8693 401.391 23.5025C401.37 23.1766 401.473 22.8913 401.699 22.6469C401.925 22.4126 402.203 22.3005 402.532 22.3209C403.53 22.3718 404.208 22.4024 404.558 22.4024C405.298 22.4024 405.74 22.3311 405.895 22.1986C406.039 22.0662 406.121 21.6486 406.121 20.9457V11.5637C406.121 11.4007 406.039 11.3192 405.874 11.3192H399.211C398.789 11.3192 398.419 11.1664 398.1 10.8506C397.781 10.5348 397.627 10.1681 397.627 9.75043V2.57895C397.627 2.16129 397.781 1.79457 398.1 1.47878C398.419 1.16299 398.789 1.01019 399.211 1.01019H407.458L407.437 1ZM406.1 5.09508V3.57725C406.1 3.41426 406.018 3.33277 405.853 3.33277H400.712C400.548 3.33277 400.465 3.41426 400.465 3.57725V5.09508C400.465 5.25807 400.548 5.33956 400.712 5.33956H405.853C406.018 5.33956 406.1 5.25807 406.1 5.09508ZM406.1 9.02717V7.48896C406.1 7.34635 406.018 7.26486 405.853 7.26486H400.712C400.548 7.26486 400.465 7.33616 400.465 7.48896V9.02717C400.465 9.16978 400.548 9.25127 400.712 9.25127H405.853C406.018 9.25127 406.1 9.17997 406.1 9.02717Z" fill="#008088"/>
<path d="M416.151 14.267C415.838 14.267 415.575 14.1533 415.343 13.9157C415.111 13.678 415 13.4094 415 13.0891C415 12.7687 415.111 12.4898 415.343 12.2521C415.565 12.0145 415.838 11.8905 416.151 11.8905H425.96C426.273 11.8905 426.546 12.0145 426.778 12.2521C427.01 12.4898 427.131 12.7687 427.131 13.0891C427.131 13.4094 427.01 13.678 426.778 13.9157C426.546 14.143 426.273 14.267 425.96 14.267H423.397C423.256 14.267 423.175 14.3496 423.175 14.5149V16.3231C423.175 16.4885 423.246 16.5711 423.397 16.5711H425.577C425.89 16.5711 426.152 16.6848 426.384 16.9018C426.616 17.1291 426.727 17.3977 426.727 17.7077C426.727 18.0177 426.616 18.2966 426.384 18.5136C426.162 18.7409 425.89 18.8443 425.577 18.8443H423.397C423.256 18.8443 423.175 18.9269 423.175 19.0922V21.5514C423.175 21.7167 423.246 21.82 423.397 21.8614C424.255 22.0474 425.365 22.192 426.748 22.3057C426.788 22.3057 426.808 22.2953 426.828 22.2643C426.849 22.2333 426.828 22.2023 426.798 22.1713C426.727 22.099 426.677 22.037 426.667 22.006C426.505 21.7477 426.465 21.4481 426.556 21.1278C426.647 20.8074 426.838 20.5698 427.131 20.4458C428.362 19.8362 429.533 19.0716 430.643 18.1623C430.684 18.121 430.684 18.09 430.674 18.0693C430.653 18.0383 430.633 18.028 430.593 18.028H429.553C429.14 18.028 428.776 17.873 428.463 17.5527C428.15 17.2324 427.999 16.8604 427.999 16.4368V6.56923C427.999 6.1456 428.15 5.77363 428.463 5.46365C428.776 5.15368 429.14 4.99869 429.553 4.99869H431.269C431.41 4.99869 431.501 4.92636 431.542 4.77137C431.673 4.30641 431.764 3.90344 431.844 3.5728C431.885 3.43848 431.814 3.37648 431.653 3.37648H428.413C428.1 3.37648 427.828 3.26282 427.595 3.02517C427.363 2.79786 427.242 2.51888 427.242 2.19857C427.242 1.87826 427.363 1.59929 427.595 1.36164C427.828 1.12399 428.1 1 428.413 1H438.768C439.081 1 439.353 1.12399 439.585 1.36164C439.817 1.59929 439.939 1.87826 439.939 2.19857C439.939 2.51888 439.817 2.78753 439.585 3.02517C439.353 3.25249 439.081 3.37648 438.768 3.37648H434.953C434.812 3.37648 434.721 3.44881 434.68 3.6038C434.64 3.74845 434.6 3.9551 434.529 4.21342C434.458 4.47173 434.428 4.64738 434.408 4.74037C434.367 4.90569 434.428 4.98835 434.569 4.98835H437.567C437.981 4.98835 438.344 5.14334 438.647 5.45332C438.949 5.76329 439.101 6.12493 439.101 6.5589V16.4368C439.101 16.8604 438.949 17.2324 438.647 17.5527C438.344 17.873 437.991 18.028 437.567 18.028H435.659C435.659 18.028 435.609 18.0383 435.609 18.0693C435.609 18.1003 435.609 18.121 435.639 18.1417C437.002 18.8443 438.182 19.5572 439.182 20.2598C439.474 20.4458 439.646 20.7145 439.696 21.0658C439.747 21.4171 439.676 21.7477 439.474 22.0474C439.333 22.2333 439.212 22.3573 439.121 22.409C439.05 22.4503 439.06 22.4813 439.151 22.5226C439.404 22.595 439.616 22.75 439.777 22.9669C439.939 23.1943 440.009 23.4422 439.999 23.7212C439.979 24.0725 439.858 24.3618 439.616 24.5995C439.383 24.8268 439.091 24.9508 438.748 24.9508H432.046C428.211 24.9508 425.254 24.7235 423.175 24.2688C421.096 23.8142 419.521 23.0289 418.452 21.913C418.361 21.7994 418.29 21.82 418.23 21.9647C417.997 22.8946 417.796 23.6076 417.634 24.1139C417.503 24.4652 417.271 24.7235 416.938 24.8785C416.605 25.0335 416.251 25.0438 415.888 24.8888C415.545 24.7545 415.293 24.5168 415.141 24.1449C414.99 23.7832 414.97 23.4112 415.101 23.0393C415.757 21.0348 416.211 18.8959 416.463 16.6228C416.504 16.2508 416.655 15.9512 416.938 15.7135C417.22 15.4759 417.533 15.3725 417.876 15.3932C418.24 15.4139 418.542 15.5689 418.775 15.8582C419.007 16.1475 419.108 16.4781 419.077 16.8501C419.007 17.7387 418.936 18.4103 418.855 18.8546C418.815 19.0199 418.855 19.1646 418.936 19.2782C419.229 19.6915 419.622 20.0945 420.137 20.5078C420.268 20.6008 420.329 20.5595 420.329 20.3941V14.5046C420.329 14.3393 420.248 14.2566 420.087 14.2566H416.161L416.151 14.267ZM417.432 1.01033H424.82C425.234 1.01033 425.597 1.16532 425.91 1.48563C426.223 1.80594 426.374 2.17791 426.374 2.60154V9.18336C426.374 9.60699 426.223 9.97896 425.91 10.2993C425.597 10.6196 425.234 10.7746 424.82 10.7746H417.432C417.018 10.7746 416.655 10.6196 416.342 10.2993C416.029 9.97896 415.878 9.60699 415.878 9.18336V2.60154C415.878 2.17791 416.029 1.80594 416.342 1.48563C416.655 1.16532 417.018 1.01033 417.432 1.01033ZM423.7 4.75071V3.55213C423.7 3.38681 423.629 3.30415 423.478 3.30415H418.896C418.734 3.30415 418.653 3.38681 418.653 3.55213V4.75071C418.653 4.91603 418.734 4.99869 418.896 4.99869H423.478C423.619 4.99869 423.7 4.91603 423.7 4.75071ZM423.7 8.46008V7.23051C423.7 7.08586 423.629 7.0032 423.478 7.0032H418.896C418.734 7.0032 418.653 7.07552 418.653 7.23051V8.46008C418.653 8.60474 418.734 8.6874 418.896 8.6874H423.478C423.619 8.6874 423.7 8.61507 423.7 8.46008ZM431.572 20.6525C430.704 21.3034 429.796 21.8614 428.847 22.3263C428.827 22.347 428.817 22.3677 428.817 22.3987C428.817 22.4297 428.837 22.44 428.867 22.44C430.098 22.4813 431.097 22.4917 431.865 22.4917H437.809C437.809 22.4917 437.859 22.4813 437.859 22.4503C437.859 22.4193 437.859 22.3987 437.829 22.378H437.799C436.759 21.6547 435.77 21.0348 434.832 20.5388C434.468 20.3322 434.226 20.0325 434.115 19.6295C433.994 19.2266 434.045 18.8443 434.267 18.4723L434.428 18.2243C434.428 18.2243 434.468 18.1417 434.438 18.1003C434.408 18.059 434.367 18.028 434.317 18.028H431.723C431.723 18.028 431.663 18.0487 431.642 18.1003C431.622 18.1417 431.622 18.183 431.642 18.2243L431.784 18.3896C432.056 18.7203 432.177 19.1232 432.137 19.5779C432.097 20.0325 431.905 20.3941 431.562 20.6525H431.572ZM430.674 7.45783V8.46008C430.674 8.60474 430.744 8.6874 430.896 8.6874H436.073C436.235 8.6874 436.315 8.61507 436.315 8.46008V7.45783C436.315 7.31317 436.235 7.23051 436.073 7.23051H430.896C430.754 7.23051 430.674 7.30284 430.674 7.45783ZM430.674 10.9502V12.0145C430.674 12.1798 430.744 12.2625 430.896 12.2625H436.073C436.235 12.2625 436.315 12.1798 436.315 12.0145V10.9502C436.315 10.7849 436.235 10.7022 436.073 10.7022H430.896C430.754 10.7022 430.674 10.7849 430.674 10.9502ZM430.674 15.6412C430.674 15.8065 430.744 15.8892 430.896 15.8892H436.073C436.235 15.8892 436.315 15.8065 436.315 15.6412V14.5253C436.315 14.36 436.235 14.2773 436.073 14.2773H430.896C430.754 14.2773 430.674 14.36 430.674 14.5253V15.6412Z" fill="#008088"/>
<path d="M446.806 24.189C446.463 23.9187 446.22 23.5682 446.099 23.1377C445.967 22.7072 445.967 22.2867 446.099 21.8661C446.685 19.8336 446.968 16.1992 446.968 10.9727V9.30066C446.968 9.19052 446.918 9.0904 446.806 9.00028C446.483 8.80004 446.27 8.50968 446.19 8.13922C446.109 7.76877 446.169 7.40832 446.372 7.08793C447.423 5.30573 448.262 3.34331 448.879 1.19066C448.99 0.810193 449.202 0.509823 449.536 0.289551C449.86 0.0592677 450.224 -0.0308433 450.628 0.00920602H450.658C451.022 0.0492554 451.305 0.209453 451.518 0.509823C451.73 0.810193 451.781 1.13059 451.69 1.47101C451.649 1.60117 451.71 1.66124 451.851 1.66124H454.803C455.117 1.66124 455.39 1.78139 455.622 2.01167C455.855 2.24196 455.976 2.51229 455.976 2.82267C455.976 3.67372 455.845 4.40462 455.562 5.0354C455.38 5.43589 455.248 5.73626 455.157 5.95653C455.137 6.0066 455.147 6.06667 455.167 6.11673C455.198 6.16679 455.238 6.19683 455.289 6.19683H456.189C456.603 6.19683 456.967 6.34702 457.28 6.64739C457.594 6.94776 457.746 7.29819 457.746 7.71871V20.9951C457.746 22.2566 457.695 23.1477 457.584 23.6583C457.473 24.169 457.28 24.5094 456.997 24.6696C456.714 24.8298 456.219 24.9099 455.511 24.9099C455.056 24.9099 454.308 24.8799 453.277 24.8298C452.933 24.8098 452.64 24.6896 452.407 24.4493C452.175 24.219 452.043 23.9287 452.023 23.5883C452.003 23.2779 452.114 23.0176 452.347 22.7873C452.579 22.557 452.852 22.4569 453.166 22.4769C453.368 22.4969 453.61 22.5169 453.894 22.527C454.177 22.547 454.348 22.557 454.429 22.557C454.834 22.557 455.066 22.4969 455.137 22.3668C455.208 22.2366 455.248 21.8261 455.248 21.1252V19.1228C455.248 18.9626 455.167 18.8825 455.006 18.8825H449.627C449.445 18.8825 449.354 18.9525 449.354 19.1027C449.172 20.8549 448.889 22.3768 448.505 23.6684C448.394 24.0288 448.161 24.2691 447.807 24.3892C447.453 24.5094 447.12 24.4493 446.806 24.209V24.189ZM449.617 13.8362C449.617 14.467 449.597 15.3081 449.566 16.3493C449.566 16.5095 449.637 16.5896 449.789 16.5896H450.962C451.123 16.5896 451.204 16.5095 451.204 16.3493V13.8362C451.204 13.6961 451.123 13.616 450.962 13.616H449.87C449.708 13.616 449.627 13.6861 449.627 13.8362H449.617ZM449.647 8.78001V11.1329C449.647 11.2931 449.718 11.3732 449.87 11.3732H450.962C451.123 11.3732 451.204 11.2931 451.204 11.1329V8.78001C451.204 8.61982 451.123 8.53972 450.962 8.53972H449.87C449.728 8.53972 449.647 8.61982 449.647 8.78001ZM450.031 5.96655C449.961 6.10672 450.001 6.18682 450.163 6.18682H451.912C452.074 6.18682 452.185 6.12674 452.235 5.99658C452.579 5.2757 452.862 4.65493 453.085 4.13429C453.155 4.01414 453.115 3.94405 452.943 3.94405H451.113C450.972 3.94405 450.871 4.00413 450.81 4.13429C450.588 4.67496 450.325 5.28571 450.021 5.97656L450.031 5.96655ZM453.58 8.78001V11.1329C453.58 11.2931 453.661 11.3732 453.823 11.3732H454.996C455.157 11.3732 455.238 11.2931 455.238 11.1329V8.78001C455.238 8.61982 455.157 8.53972 454.996 8.53972H453.823C453.661 8.53972 453.58 8.61982 453.58 8.78001ZM453.58 13.8362V16.3493C453.58 16.5095 453.661 16.5896 453.823 16.5896H454.996C455.157 16.5896 455.238 16.5095 455.238 16.3493V13.8362C455.238 13.6961 455.157 13.616 454.996 13.616H453.823C453.661 13.616 453.58 13.6861 453.58 13.8362ZM458.655 16.89C458.332 16.7699 458.11 16.5296 457.988 16.1891C457.867 15.8487 457.897 15.5183 458.059 15.2179C458.807 13.7561 459.383 12.2943 459.808 10.8125C459.828 10.7725 459.818 10.7524 459.798 10.7324C459.768 10.7124 459.747 10.7124 459.727 10.7324C459.495 10.8626 459.252 10.8926 458.999 10.8225C458.757 10.7625 458.554 10.6223 458.413 10.402L458.19 10.0816C458.008 9.79126 457.958 9.49089 458.049 9.16048C458.14 8.83007 458.332 8.57977 458.625 8.37952C460.334 7.25814 461.405 5.81636 461.85 4.02415C461.891 3.88398 461.83 3.80388 461.689 3.80388H459.474C459.131 3.80388 458.837 3.68373 458.585 3.45345C458.342 3.22317 458.211 2.93281 458.211 2.59239C458.211 2.25197 458.332 1.96161 458.585 1.73133C458.827 1.50104 459.131 1.3809 459.474 1.3809H469.109C469.524 1.3809 469.888 1.53108 470.191 1.84146C470.495 2.15185 470.636 2.51229 470.616 2.9228C470.525 5.0354 470.383 6.54726 470.191 7.47841C469.999 8.40956 469.726 9.02031 469.372 9.32068C469.018 9.62105 468.442 9.77124 467.643 9.77124C467.097 9.77124 466.309 9.7412 465.268 9.69114C464.924 9.67111 464.631 9.55096 464.408 9.31067C464.176 9.08038 464.044 8.79003 464.014 8.44961C463.994 8.13922 464.095 7.8789 464.317 7.66864C464.54 7.44837 464.802 7.34825 465.106 7.36827C465.47 7.3883 465.904 7.39831 466.42 7.39831C466.936 7.39831 467.249 7.2281 467.391 6.88768C467.532 6.54726 467.633 5.6061 467.704 4.07421C467.704 3.91402 467.633 3.83392 467.482 3.83392H464.883C464.742 3.83392 464.651 3.90401 464.61 4.05419C464.135 6.71747 462.76 8.80004 460.485 10.3019C460.445 10.3419 460.435 10.372 460.445 10.412C460.445 10.4521 460.475 10.4721 460.516 10.4921L461.284 10.6523C461.628 10.7224 461.881 10.9026 462.052 11.193C462.224 11.4833 462.255 11.7837 462.164 12.1141C462.123 12.2243 462.164 12.2743 462.295 12.2743H463.66C463.822 12.2743 463.903 12.2042 463.903 12.054V11.8638C463.903 11.4633 464.034 11.1329 464.317 10.8626C464.6 10.5922 464.924 10.4521 465.328 10.4521C465.733 10.4521 466.066 10.5922 466.349 10.8626C466.632 11.1329 466.774 11.4633 466.774 11.8638V12.054C466.774 12.1942 466.855 12.2743 467.017 12.2743H469.332C469.655 12.2743 469.938 12.3945 470.161 12.6248C470.393 12.855 470.505 13.1354 470.505 13.4658C470.505 13.7962 470.393 14.0665 470.161 14.3068C469.938 14.5371 469.655 14.6573 469.332 14.6573H467.017C466.855 14.6573 466.774 14.7374 466.774 14.8976V17.5508C466.774 17.691 466.855 17.7711 467.017 17.7711H469.777C470.12 17.7711 470.414 17.8912 470.646 18.1215C470.879 18.3518 471 18.6422 471 18.9826C471 19.323 470.879 19.6134 470.646 19.8436C470.414 20.0739 470.12 20.1941 469.777 20.1941H467.017C466.855 20.1941 466.774 20.2742 466.774 20.4344V23.5682C466.774 23.9687 466.632 24.2991 466.349 24.5795C466.066 24.8598 465.722 25 465.328 25C464.934 25 464.59 24.8598 464.317 24.5795C464.044 24.2991 463.903 23.9587 463.903 23.5682V20.4344C463.903 20.2742 463.822 20.1941 463.66 20.1941H459.535C459.191 20.1941 458.898 20.0739 458.666 19.8436C458.433 19.6134 458.312 19.323 458.312 18.9826C458.312 18.6422 458.433 18.3518 458.666 18.1215C458.898 17.8912 459.191 17.7711 459.535 17.7711H463.66C463.822 17.7711 463.903 17.701 463.903 17.5508V14.8976C463.903 14.7374 463.822 14.6573 463.66 14.6573H461.476C461.335 14.6573 461.234 14.7173 461.173 14.8475C461.122 14.9877 460.9 15.4582 460.516 16.2492C460.354 16.5896 460.091 16.8299 459.727 16.9501C459.363 17.0802 459.009 17.0702 458.666 16.92L458.655 16.89Z" fill="#008088"/>
<path d="M477.276 6.39875C476.905 6.39875 476.597 6.27349 476.36 6.0334C476.123 5.79332 476 5.48017 476 5.10438C476 4.7286 476.123 4.41545 476.36 4.17537C476.597 3.93528 476.905 3.81002 477.276 3.81002H486.72C486.885 3.81002 486.967 3.72651 486.967 3.5595V1.55532C486.967 1.13779 487.121 0.782881 487.43 0.469729C487.739 0.156576 488.088 0 488.5 0C488.912 0 489.261 0.156576 489.57 0.469729C489.879 0.782881 490.033 1.13779 490.033 1.55532V3.5595C490.033 3.72651 490.115 3.81002 490.28 3.81002H499.724C500.095 3.81002 500.403 3.93528 500.64 4.17537C500.877 4.41545 501 4.7286 501 5.10438C501 5.48017 500.877 5.79332 500.64 6.0334C500.403 6.27349 500.095 6.39875 499.724 6.39875H486.946C486.782 6.39875 486.7 6.48225 486.7 6.64927C486.7 7.96451 486.658 9.08142 486.586 10C486.586 10.1461 486.658 10.2296 486.813 10.2296H497.008C497.43 10.2296 497.8 10.3862 498.109 10.6994C498.418 11.0125 498.572 11.3779 498.572 11.8163V12.2129C498.572 14.5198 498.521 16.4196 498.407 17.9019C498.294 19.3841 498.13 20.6159 497.924 21.5971C497.718 22.5783 497.389 23.2985 496.946 23.7787C496.514 24.2589 496.031 24.5825 495.516 24.7495C495.002 24.9165 494.313 25 493.459 25C492.368 25 490.907 24.9478 489.066 24.833C488.695 24.7912 488.377 24.6451 488.109 24.3633C487.842 24.0814 487.698 23.7578 487.677 23.3612C487.656 22.9854 487.78 22.6722 488.037 22.4322C488.294 22.1921 488.603 22.0772 488.953 22.0981C490.568 22.2129 491.874 22.2651 492.893 22.2651C493.562 22.2651 494.066 22.0564 494.426 21.6493C494.776 21.2317 495.064 20.3549 495.27 18.9979C495.475 17.6409 495.588 15.6681 495.588 13.048C495.588 12.9019 495.506 12.8184 495.342 12.8184H486.535C486.391 12.8184 486.298 12.9019 486.257 13.0689C485.846 15.5846 485.126 17.7349 484.076 19.5198C483.027 21.3048 481.535 22.9958 479.591 24.5929C479.261 24.8539 478.881 24.9687 478.449 24.9269C478.016 24.8852 477.667 24.7077 477.368 24.3946C477.091 24.0919 476.977 23.7474 477.019 23.3507C477.06 22.9541 477.245 22.6305 477.564 22.3591C479.899 20.5219 481.494 18.4969 482.337 16.2839C483.181 14.071 483.623 10.8455 483.644 6.60752C483.644 6.46138 483.562 6.37787 483.397 6.37787H477.286L477.276 6.39875Z" fill="#008088"/>
<path d="M513.677 23.8241C512.792 24.6111 511.74 25 510.5 25C509.26 25 508.198 24.6111 507.323 23.8241C506.437 23.037 506 22.1019 506 21C506 19.8981 506.437 18.963 507.323 18.1759C508.208 17.3889 509.26 17 510.5 17C511.74 17 512.802 17.3889 513.677 18.1759C514.563 18.963 515 19.8981 515 21C515 22.1019 514.563 23.0463 513.677 23.8241ZM512.083 19.5833C511.646 19.1944 511.115 19 510.49 19C509.865 19 509.344 19.1944 508.896 19.5833C508.458 19.9722 508.24 20.4444 508.24 21C508.24 21.5556 508.458 22.0185 508.896 22.4167C509.333 22.8056 509.865 23 510.49 23C511.115 23 511.635 22.8056 512.083 22.4167C512.521 22.0278 512.74 21.5556 512.74 21C512.74 20.4444 512.521 19.9815 512.083 19.5833Z" fill="#008088"/>
</g>
<defs>
<clipPath id="clip0_963_115">
<rect width="515" height="26" fill="white"/>
</clipPath>
</defs>
</svg>
